<?xml version="1.0" encoding="UTF-8"?>
<svg width="512px" height="296px" viewBox="0 0 512 296" version="1.1" xmlns="http://www.w3.org/2000/svg" xmlns:xlink="http://www.w3.org/1999/xlink">
    <title>table-free</title>
    <g id="Page-1" stroke="none" stroke-width="1" fill="none" fill-rule="evenodd">
        <g id="table-free" fill="#11E682" fill-rule="nonzero">
            <path d="M495.585,180.267 L511.617,92.092 C513.94,79.327 505.443,67.051 492.674,64.727 C486.475,63.602 480.216,64.953 475.051,68.534 C469.893,72.11 466.434,77.486 465.312,83.67 L457.504,126.619 C456.763,130.694 459.466,134.598 463.542,135.339 C467.619,136.079 471.521,133.377 472.262,129.301 L480.07,86.35 C480.478,84.104 481.731,82.154 483.598,80.86 C485.467,79.563 487.738,79.075 489.99,79.485 C494.62,80.328 497.701,84.778 496.859,89.407 L480.827,177.584 C480.089,181.642 476.559,184.588 472.432,184.588 L424.71,184.588 L423.004,167.524 L459.054,167.524 C463.196,167.524 466.554,164.166 466.554,160.024 C466.554,155.882 463.196,152.524 459.054,152.524 L421.504,152.524 L415.766,95.15 C415.383,91.316 412.156,88.396 408.303,88.396 L385.845,88.396 L391.531,65.65 C392.092,63.41 391.588,61.036 390.167,59.215 C388.746,57.394 386.565,56.331 384.255,56.331 L328.143,56.331 C325.833,56.331 323.653,57.395 322.231,59.215 C320.809,61.035 320.306,63.409 320.867,65.65 L326.553,88.396 L283.108,88.396 L295.026,58.601 C295.95,56.29 295.669,53.672 294.273,51.611 C292.878,49.55 290.551,48.316 288.063,48.316 L282.844,48.316 C285.823,43.502 287.547,37.833 287.547,31.768 C287.547,14.372 273.395,0.22 255.999,0.22 C238.603,0.22 224.451,14.372 224.451,31.768 C224.451,37.833 226.176,43.502 229.154,48.316 L223.935,48.316 C221.446,48.316 219.12,49.55 217.725,51.611 C216.329,53.672 216.048,56.29 216.972,58.601 L228.89,88.396 L185.445,88.396 L191.132,65.65 C191.693,63.41 191.189,61.036 189.768,59.215 C188.347,57.394 186.166,56.331 183.856,56.331 L127.744,56.331 C125.434,56.331 123.254,57.395 121.832,59.215 C120.41,61.035 119.907,63.409 120.468,65.65 L126.155,88.396 L103.697,88.396 C99.844,88.396 96.617,91.316 96.234,95.15 L90.496,152.524 L52.946,152.524 C48.804,152.524 45.446,155.882 45.446,160.024 C45.446,164.166 48.804,167.524 52.946,167.524 L88.996,167.524 L87.29,184.588 L39.567,184.588 C35.441,184.588 31.91,181.642 31.172,177.584 L15.14,89.406 C14.298,84.778 17.379,80.327 22.006,79.485 C24.258,79.074 26.531,79.564 28.401,80.86 C30.268,82.154 31.521,84.104 31.929,86.352 L39.737,129.301 C40.478,133.377 44.387,136.08 48.457,135.339 C52.533,134.598 55.236,130.694 54.495,126.619 L46.688,83.671 C45.565,77.485 42.106,72.109 36.948,68.533 C31.784,64.952 25.526,63.602 19.323,64.727 C6.556,67.051 -1.94,79.327 0.383,92.091 L16.415,180.267 C17.382,185.588 20.103,190.201 23.9,193.592 L16.061,287.657 C15.717,291.785 18.785,295.41 22.912,295.754 C23.124,295.772 23.334,295.78 23.543,295.78 C27.403,295.78 30.683,292.818 31.009,288.903 L38.456,199.538 C38.826,199.555 39.193,199.587 39.567,199.587 L85.789,199.587 L80.2,255.47 C79.989,257.578 80.68,259.678 82.102,261.249 C83.524,262.82 85.544,263.716 87.663,263.716 C100.712,263.716 107.66,258.42 113.243,254.165 C114.605,253.127 115.863,252.173 117.138,251.329 L120.269,288.903 C120.595,292.819 123.874,295.78 127.735,295.78 C127.943,295.78 128.154,295.771 128.366,295.754 C132.493,295.41 135.561,291.785 135.217,287.657 L131.893,247.764 C138.398,248.22 141.753,250.761 146.218,254.164 C151.801,258.419 158.749,263.715 171.798,263.715 C184.847,263.715 191.796,258.419 197.379,254.164 C202.316,250.401 205.882,247.683 213.867,247.683 C221.855,247.683 225.422,250.402 230.36,254.164 C234.771,257.526 240.049,261.526 248.501,263.062 L248.501,280.778 L207.905,280.778 C203.763,280.778 200.405,284.136 200.405,288.278 C200.405,292.42 203.763,295.78 207.905,295.78 L304.097,295.78 C308.239,295.78 311.597,292.42 311.597,288.278 C311.597,284.136 308.239,280.778 304.097,280.778 L263.5,280.778 L263.5,263.04 C271.882,261.488 277.13,257.509 281.52,254.162 C286.455,250.4 290.02,247.682 298.001,247.682 C305.993,247.682 309.563,250.401 314.502,254.164 C320.087,258.419 327.039,263.714 340.093,263.714 C353.154,263.714 360.109,258.42 365.697,254.166 C370.182,250.751 373.55,248.204 380.107,247.759 L376.782,287.655 C376.438,291.783 379.506,295.408 383.633,295.752 C383.845,295.77 384.055,295.78 384.264,295.78 C388.124,295.78 391.404,292.816 391.73,288.901 L394.86,251.347 C396.127,252.187 397.379,253.135 398.733,254.165 C404.321,258.419 411.276,263.713 424.337,263.713 C426.456,263.713 428.476,262.817 429.898,261.246 C431.32,259.675 432.011,257.576 431.8,255.467 L426.212,199.585 L472.434,199.585 C472.808,199.585 473.175,199.553 473.545,199.536 L480.992,288.901 C481.318,292.817 484.597,295.78 488.458,295.78 C488.666,295.78 488.877,295.769 489.089,295.752 C493.216,295.408 496.284,291.783 495.94,287.655 L488.101,193.59 C491.896,190.2 494.617,185.588 495.585,180.267 L495.585,180.267 Z M337.75,71.331 L374.65,71.331 L370.384,88.395 L342.016,88.395 L337.75,71.331 Z M239.452,31.767 C239.452,22.642 246.875,15.219 256,15.219 C265.124,15.219 272.548,22.642 272.548,31.767 C272.548,40.892 265.125,48.315 256,48.315 C246.875,48.315 239.452,40.892 239.452,31.767 Z M235.013,63.315 L276.986,63.315 L266.954,88.395 L245.045,88.395 L235.013,63.315 Z M137.349,71.331 L174.249,71.331 L169.983,88.395 L141.615,88.395 L137.349,71.331 Z M407.819,242.232 C402.231,237.978 395.276,232.684 382.215,232.684 C369.155,232.684 362.2,237.978 356.611,242.232 C351.666,245.996 348.094,248.716 340.093,248.716 C332.101,248.716 328.532,245.997 323.592,242.234 C318.007,237.979 311.055,232.684 298.001,232.684 C284.954,232.684 278.007,237.98 272.425,242.236 C267.49,245.998 263.925,248.716 255.945,248.716 C247.957,248.716 244.389,245.997 239.451,242.235 C233.867,237.98 226.917,232.684 213.866,232.684 C200.817,232.684 193.868,237.98 188.285,242.235 C183.348,245.997 179.782,248.716 171.797,248.716 C163.813,248.716 160.247,245.998 155.31,242.235 C149.727,237.98 142.779,232.684 129.73,232.684 C116.681,232.684 109.733,237.98 104.15,242.235 C101.374,244.351 99.031,246.136 96.092,247.294 L110.482,103.396 L401.515,103.396 L415.907,247.3 C412.955,246.142 410.604,244.353 407.819,242.232 Z" id="Shape"></path>
        </g>
    </g>
</svg>