<svg width="24" height="24" viewBox="0 0 24 24" fill="none" xmlns="http://www.w3.org/2000/svg">
<path d="M15.7101 4C16.5401 4 17.3301 4.22 18.0001 4.66C19.1401 5.4 19.8401 6.53 20.0001 7.84C20.0573 8.47455 19.975 9.11392 19.7591 9.71334C19.5431 10.3127 19.1988 10.8577 18.7501 11.31C18.0501 12 17.1601 12.44 16.1801 12.54C14.2701 12.74 12.5901 13.5 11.3401 14.77C11.1889 14.9175 10.9862 15 10.7751 15C10.5639 15 10.3612 14.9175 10.2101 14.77L9.22006 13.78C9.15008 13.7107 9.09459 13.6281 9.05683 13.5371C9.01906 13.4461 8.99976 13.3485 9.00006 13.25C9.00006 13 9.11006 12.78 9.32006 12.57C10.5301 11.35 11.2701 9.73 11.4501 7.87C11.5801 6.54 12.2901 5.4 13.4501 4.65C14.1101 4.22 14.8901 4 15.7101 4ZM15.7101 2C14.5401 2 13.3701 2.32 12.3601 2.97C10.6001 4.1 9.63006 5.86 9.46006 7.68C9.33006 9 8.83006 10.23 7.91006 11.15L7.88006 11.18C6.72006 12.34 6.72006 14.11 7.81006 15.19L8.80006 16.18C9.35006 16.73 10.0601 17 10.7701 17C11.4801 17 12.2001 16.73 12.7501 16.18C13.7201 15.21 15.0001 14.68 16.3901 14.53C17.7601 14.38 19.1001 13.78 20.1601 12.73C20.8251 12.0659 21.3323 11.2608 21.6442 10.3742C21.9561 9.48759 22.0647 8.54223 21.962 7.60801C21.8592 6.67379 21.5478 5.77462 21.0507 4.977C20.5536 4.17939 19.8835 3.50373 19.0901 3C18.0801 2.33 16.9001 2 15.7101 2ZM6.26006 19.86C6.53006 20.42 6.44006 21.1 5.97006 21.56C5.7665 21.7666 5.50706 21.9093 5.22357 21.9707C4.94007 22.032 4.64484 22.0092 4.3741 21.9052C4.10335 21.8011 3.86886 21.6203 3.69939 21.3849C3.52992 21.1495 3.43284 20.8698 3.42006 20.58C3.13029 20.5672 2.85055 20.4701 2.61516 20.3007C2.37976 20.1312 2.19895 19.8967 2.0949 19.626C1.99085 19.3552 1.96809 19.06 2.0294 18.7765C2.09071 18.493 2.23343 18.2336 2.44006 18.03C2.90006 17.57 3.59006 17.47 4.14006 17.74L6.62006 15.31C6.76006 15.5 6.92006 15.72 7.10006 15.9L8.09006 16.89C8.30006 17.09 8.50006 17.26 8.76006 17.41L6.26006 19.86Z" fill="black"/>
</svg>
